<svg xmlns="http://www.w3.org/2000/svg" width="40" height="40" viewBox="0 0 40 40"><defs><style>.a{fill:rgba(0,0,0,0);}.b{fill:#fff;}</style></defs><g transform="translate(0 -1)"><path class="a" d="M20,41A20,20,0,0,1,5.857,6.859,20,20,0,0,1,34.143,35.143,19.87,19.87,0,0,1,20,41ZM20,3.105A17.895,17.895,0,1,0,37.895,21,17.915,17.915,0,0,0,20,3.105Z" transform="translate(0)"/><path class="b" d="M11.369,23.341a1.057,1.057,0,0,1-.745-.307L4.308,16.718A1.052,1.052,0,0,1,5.8,15.23L11.367,20.8,25.358,6.809A1.052,1.052,0,0,1,26.847,8.3L12.11,23.034a1.048,1.048,0,0,1-.745.307Z" transform="translate(4.421 6.08)"/></g></svg>