<svg xmlns="http://www.w3.org/2000/svg" xmlns:xlink="http://www.w3.org/1999/xlink" width="45.243" height="36.73" viewBox="0 0 45.243 36.73"><defs><style>.a{fill:#fff;}.b{filter:url(#e);}.c{filter:url(#c);}.d{filter:url(#a);}</style><filter id="a" x="0" y="0" width="45.243" height="19.703" filterUnits="userSpaceOnUse"><feOffset dy="3" input="SourceAlpha"/><feGaussianBlur stdDeviation="3" result="b"/><feFlood flood-opacity="0.161"/><feComposite operator="in" in2="b"/><feComposite in="SourceGraphic"/></filter><filter id="c" x="0" y="8.513" width="45.243" height="19.703" filterUnits="userSpaceOnUse"><feOffset dy="3" input="SourceAlpha"/><feGaussianBlur stdDeviation="3" result="d"/><feFlood flood-opacity="0.161"/><feComposite operator="in" in2="d"/><feComposite in="SourceGraphic"/></filter><filter id="e" x="0" y="17.027" width="45.243" height="19.703" filterUnits="userSpaceOnUse"><feOffset dy="3" input="SourceAlpha"/><feGaussianBlur stdDeviation="3" result="f"/><feFlood flood-opacity="0.161"/><feComposite operator="in" in2="f"/><feComposite in="SourceGraphic"/></filter></defs><g transform="translate(7 1)"><g class="d" transform="matrix(1, 0, 0, 1, -7, -1)"><path class="a" d="M28.392,6.7H2.851a.851.851,0,0,1,0-1.7h25.54a.851.851,0,0,1,0,1.7Z" transform="translate(7 1)"/></g><g class="c" transform="matrix(1, 0, 0, 1, -7, -1)"><path class="a" d="M28.392,11.7H2.851a.851.851,0,1,1,0-1.7h25.54a.851.851,0,1,1,0,1.7Z" transform="translate(7 4.51)"/></g><g class="b" transform="matrix(1, 0, 0, 1, -7, -1)"><path class="a" d="M28.392,16.7H2.851a.851.851,0,1,1,0-1.7h25.54a.851.851,0,0,1,0,1.7Z" transform="translate(7 8.03)"/></g></g></svg>