<svg xmlns="http://www.w3.org/2000/svg" xmlns:xlink="http://www.w3.org/1999/xlink" width="74.97" height="47.594" viewBox="0 0 74.97 47.594"><defs><style>.a{fill:#cccd33;}.b{fill:#a21422;}.c{fill:#016736;}.d{fill:#fff;}.e{filter:url(#g);}.f{filter:url(#e);}.g{filter:url(#c);}.h{filter:url(#a);}</style><filter id="a" x="1.038" y="6.255" width="36.094" height="35.996" filterUnits="userSpaceOnUse"><feOffset dy="3" input="SourceAlpha"/><feGaussianBlur stdDeviation="3" result="b"/><feFlood flood-opacity="0.161"/><feComposite operator="in" in2="b"/><feComposite in="SourceGraphic"/></filter><filter id="c" x="23.613" y="6.188" width="29.903" height="36.07" filterUnits="userSpaceOnUse"><feOffset dy="3" input="SourceAlpha"/><feGaussianBlur stdDeviation="3" result="d"/><feFlood flood-opacity="0.161"/><feComposite operator="in" in2="d"/><feComposite in="SourceGraphic"/></filter><filter id="e" x="47.331" y="11.47" width="27.638" height="36.124" filterUnits="userSpaceOnUse"><feOffset dy="3" input="SourceAlpha"/><feGaussianBlur stdDeviation="3" result="f"/><feFlood flood-opacity="0.161"/><feComposite operator="in" in2="f"/><feComposite in="SourceGraphic"/></filter><filter id="g" x="32.558" y="11.47" width="34.339" height="36.124" filterUnits="userSpaceOnUse"><feOffset dy="3" input="SourceAlpha"/><feGaussianBlur stdDeviation="3" result="h"/><feFlood flood-opacity="0.161"/><feComposite operator="in" in2="h"/><feComposite in="SourceGraphic"/></filter></defs><g transform="translate(-192.998 -108.667)"><path class="a" d="M203.309,235.471c-.3-.694-3.111-1.179-5.948-.069s-4.664,3.472-4.322,4.086c.294.528,3.113,1.178,5.948.069S203.57,236.075,203.309,235.471Z" transform="translate(0 -111.823)"/><path class="b" d="M340.8,108.686c-.565-.2-3.116,1.167-4.517,3.87s-1.15,5.645-.555,5.923c.678.324,3.116-1.167,4.522-3.87S341.467,108.922,340.8,108.686Z" transform="translate(-126.175 0)"/><path class="c" d="M248.223,122.534c-1.526-2.635-4.138-4.084-4.694-3.653-.477.371-.693,3.255.833,5.889s4.136,4,4.7,3.653C249.7,128.024,249.751,125.169,248.223,122.534Z" transform="translate(-44.504 -8.993)"/><g class="h" transform="matrix(1, 0, 0, 1, 193, 108.67)"><path class="d" d="M298.644,218.02l-.846-.077a65.336,65.336,0,0,1-1.922,6.537c-.691,1.538-3.618,7.768-3.922,8s-.308.846-.769.461,1.615-9.844,1.922-10.922a13.377,13.377,0,0,0,.384-2.46l-1.307-1h-.77s-1.308,3.922-1.846,5.307-3.384,8-4.306,8.768-.923.308-.846-1.154a97,97,0,0,1,3-11.151,18.356,18.356,0,0,0,.846-1.922,14.28,14.28,0,0,0-1.922-1.307l-.577-.038c-.308.384-4.537,12.459-3.922,15.612a3.765,3.765,0,0,0,3.307,2.383c1.576.038,4.037-7.114,4.037-7.114a5.606,5.606,0,0,1,0,1.769c-.154,1-.538,2.846.615,4s2.846,1.7,3.844.308,5.922-11.844,6.23-14.689Z" transform="translate(-271.74 -204.81)"/></g><path class="d" d="M431.411,272.835l-.019.047c-.008.021-.019.047-.032.08s-.044.107-.072.176l-.062.149c-.033.079-.069.166-.113.257l-.079.185c-.027.063-.055.127-.084.191a5.83,5.83,0,0,1-.544,1.067c-.044.044-.158.172-.32.352l-.119.13-.1.107-.145.163-.113.113c-.093.1-.191.2-.293.308-.041.043-.083.087-.125.13-.062.064-.127.129-.191.193l-.13.13c-.088.086-.177.172-.267.255l-.133.124c-.113.105-.226.2-.339.3-.055.047-.113.093-.166.137l-.054.043c-.077.06-.152.113-.226.168a2.114,2.114,0,0,1-.664.339,1.99,1.99,0,0,1-.5.058,1.077,1.077,0,0,1-.267-.04.852.852,0,0,1-.182-.079.792.792,0,0,1-.251-.239,1.269,1.269,0,0,1-.155-.327,2.114,2.114,0,0,1-.063-.256q-.028-.162-.044-.349v-.1h0a1.324,1.324,0,0,1,.01-.2,3.393,3.393,0,0,1,.085-.471c.031-.121.067-.245.106-.371.067-.208.145-.417.226-.617.032-.08.064-.158.1-.234.016-.038.033-.076.049-.113.1-.22.19-.417.265-.565l.035-.072c.08-.161.132-.257.132-.257a5.046,5.046,0,0,0,.6.19l.1.025.087.018a2.767,2.767,0,0,0,.583.062,1.16,1.16,0,0,0,.391-.063,5.366,5.366,0,0,0,.7-.272,3.954,3.954,0,0,0,1.686-2.419,2.8,2.8,0,0,0,.137-1.644c-.01-.038-.021-.077-.033-.113a2,2,0,0,0-.133-.319,2.14,2.14,0,0,0-.4-.54c-.053-.053-.113-.1-.166-.151a2.794,2.794,0,0,0-.374-.26,3.145,3.145,0,0,0-.416-.2,7.326,7.326,0,0,0-.969-.324l-.1-.024a1.026,1.026,0,0,0-.388-.036c-.072.014-.151.033-.239.058a2.559,2.559,0,0,0-.483.2,3.419,3.419,0,0,0-.93.753,5.57,5.57,0,0,0-.378.475,7.536,7.536,0,0,0-.512.839c-.042.081-.085.165-.128.251q-.127.26-.253.555c-.085.2-.167.407-.25.631-.165.447-.326.946-.48,1.506a10.148,10.148,0,0,0-.261,1.266c-.01.07-.02.14-.028.21q-.027.21-.044.417c-.018.207-.032.412-.038.612,0,.133-.008.265-.008.393v.38l.007.183c.006.121.014.239.023.353a1.676,1.676,0,0,0,.015.168c.01.113.023.217.037.32.007.051.014.1.021.15.031.2.066.374.106.53.01.038.02.077.031.113.02.072.043.139.066.2s.046.113.07.164a2.228,2.228,0,0,0,.127.22,2.763,2.763,0,0,0,.443.514c.026.024.052.047.079.07a3.009,3.009,0,0,0,.262.2c.031.02.062.042.095.061a3.091,3.091,0,0,0,1.3.452,3.311,3.311,0,0,0,.428.021,3.863,3.863,0,0,0,.461-.035,2.1,2.1,0,0,0,1.018-.573,6.158,6.158,0,0,0,.452-.442l.113-.113c.073-.08.145-.161.215-.241l.1-.121c.1-.12.2-.239.292-.352l.089-.113.166-.207.076-.095a2.135,2.135,0,0,1,.393-.431l.1-.036.04-.014.158-.055.326-.113.678-.242h0Zm-3.691-2.231a3.028,3.028,0,0,1,1.307-1.307s.77.769-.226,2.384a2.109,2.109,0,0,1-1.768,1.076A5.379,5.379,0,0,1,427.719,270.6Z" transform="translate(-204.743 -141.032)"/><g class="g" transform="matrix(1, 0, 0, 1, 193, 108.67)"><path class="d" d="M489.05,230.336c-.615-.308,1.076-4.691,1.7-6.153s2.614-7.306,2.614-7.306a5.751,5.751,0,0,0-2.23-.384s-2.479,5.6-2.615,5.766c-.307.384-2.231-.616-3.038-.192-1.04.544-2.308,2.921-2.692,4.614s-1.7,4.922-1.23,6a2.755,2.755,0,0,0,2.461,1.845c1.23-.154,2.076-2.148,2.23-2.537,0,0,.606,1.6,1.193,1.96,1,.615,2.306-1.538,2.768-1.845a6.967,6.967,0,0,0,1.231-1.616v-3.844S489.665,230.644,489.05,230.336Zm-1.922-3.618c-.384.846-2.383,4.845-3.152,5.307,0,0,.461-4.231,1.7-6.23s1.384-2.077,2-1.922-.162,2-.545,2.848Z" transform="translate(-448.84 -204.28)"/></g><g class="f" transform="matrix(1, 0, 0, 1, 193, 108.67)"><path class="d" d="M699.573,263.7l-.1.009a.84.84,0,0,0-.244-.009c-.141.015-.263.024-.367.029a.978.978,0,0,1-.217-.029l-.012.033a1.27,1.27,0,0,1-.327-.033s-3.426,8.706-4.65,9.677c-.452-.826,2.313-7.133,2.529-8.14.226-1.076.308-1.384.308-1.384s-1.616-.77-1.885-.655l-.014.031a.647.647,0,0,0-.326-.031s-3.576,7.961-2.961,10.729c.259,1.166.452,2,1.922,2a.7.7,0,0,0,.1-.008c.077.006.157.008.243.008.422,0,.866-.462,1.181-.88-.209,1.461-.708,4.868-.829,5.11-.154.308.612,1.153,1.384,1.153a.212.212,0,0,0,.1-.027,1.227,1.227,0,0,0,.239.027c.616,0,.847-2.846,1.078-3.922s3.538-11.844,4.153-12.921C700.88,264.468,700.265,263.623,699.573,263.7Z" transform="translate(-634.91 -245.72)"/></g><g class="e" transform="matrix(1, 0, 0, 1, 193, 108.67)"><path class="d" d="M575.6,263.7l-.095.009a.839.839,0,0,0-.244-.009c-.141.015-.262.024-.367.029a.975.975,0,0,1-.216-.029l-.014.033a1.252,1.252,0,0,1-.326-.033s-3.427,8.706-4.651,9.677c-.452-.826,2.313-7.133,2.529-8.14.226-1.076.307-1.384.307-1.384s-1.615-.77-1.884-.655a.061.061,0,0,1-.014.031.647.647,0,0,0-.326-.031,58.709,58.709,0,0,0-2.159,5.674v-.021a16.693,16.693,0,0,1-1,2.154c-.231.232-2.384,2.769-3.385,3s-1.384-.226-1.461-1.231a8.2,8.2,0,0,1,1-3,3.3,3.3,0,0,0,1.769.232c.615-.231,1.52-.314,2.384-2.692a2.331,2.331,0,0,0-1.385-3.23c-1.159-.461-1.461-.384-1.461-.384-.77.154-2.417.791-3.653,5.267a9.727,9.727,0,0,0,0,5.461,3.052,3.052,0,0,0,3.192,1.5c1.143-.156,2.691-2.614,2.921-2.691l.206-.071a3.487,3.487,0,0,0,.071.763c.259,1.166.452,2,1.922,2a.68.68,0,0,0,.1-.008c.077.006.158.008.243.008.422,0,.866-.462,1.183-.88-.21,1.461-.709,4.868-.83,5.11-.154.308.612,1.153,1.385,1.153a.218.218,0,0,0,.1-.027,1.218,1.218,0,0,0,.239.027c.615,0,.846-2.846,1.076-3.922s3.538-11.844,4.154-12.921C576.912,264.468,576.3,263.623,575.6,263.7Zm-11.151,2.921a3.028,3.028,0,0,1,1.307-1.307s.769.769-.226,2.384a2.11,2.11,0,0,1-1.769,1.076A5.382,5.382,0,0,1,564.453,266.621Z" transform="translate(-519.02 -245.72)"/></g></g></svg>