<svg xmlns="http://www.w3.org/2000/svg" width="319.557" height="172.417" viewBox="0 0 319.557 172.417">
  <g id="wedeyy-svg_-logo" data-name="wedeyy-svg -logo" transform="translate(-192.998 -108.667)">
    <path id="Path_4" data-name="Path 4" d="M242.946,238.263c-1.44-3.363-15.072-5.712-28.813-.334s-22.591,16.819-20.937,19.793c1.424,2.558,15.077,5.707,28.813.334S244.206,241.193,242.946,238.263Z" transform="translate(0 -57.029)" fill="#cccd33"/>
    <path id="Path_5" data-name="Path 5" d="M362.127,108.762c-2.738-.98-15.094,5.652-21.879,18.747s-5.57,27.345-2.689,28.692c3.286,1.572,15.094-5.652,21.907-18.747S365.336,109.906,362.127,108.762Z" transform="translate(-64.349 0)" fill="#a21422"/>
    <path id="Path_6" data-name="Path 6" d="M267.626,136.864c-7.393-12.766-20.044-19.782-22.739-17.7-2.311,1.8-3.357,15.767,4.036,28.528s20.034,19.387,22.745,17.7C274.773,163.459,275.025,149.63,267.626,136.864Z" transform="translate(-22.697 -4.586)" fill="#016736"/>
    <path id="Path_7" data-name="Path 7" d="M363.47,221.71l-4.1-.372s-5.964,24.218-9.31,31.666-17.525,37.63-19,38.747-1.49,4.1-3.724,2.234,7.821-47.685,9.31-52.9a64.8,64.8,0,0,0,1.862-11.917l-6.331-4.847h-3.73s-6.336,19-8.943,25.707-16.392,38.747-20.861,42.471-4.469,1.49-4.1-5.592,12.662-49.92,14.53-54.016,4.1-8.571,4.1-9.31-9.31-6.331-9.31-6.331l-2.793-.186c-1.49,1.862-21.978,60.353-19,75.627,0,0,4.1,11.254,16.019,11.545,7.634.186,19.557-34.459,19.557-34.459a27.163,27.163,0,0,1,0,8.571c-.745,4.841-2.607,13.785,2.979,19.371s13.785,8.215,18.621,1.49,28.687-57.373,30.176-71.152Z" transform="translate(-40.159 -49.03)" fill="#006835"/>
    <path id="Path_8" data-name="Path 8" d="M460.512,292.663l-.093.23c-.038.1-.093.23-.153.389s-.214.52-.351.854l-.3.723c-.159.383-.334.805-.548,1.243l-.383.9c-.131.307-.268.613-.405.926a28.242,28.242,0,0,1-2.634,5.17c-.214.214-.767.832-1.55,1.7l-.575.63-.471.52-.7.789-.548.548c-.449.477-.926.98-1.418,1.49-.2.208-.4.422-.608.63-.3.312-.613.624-.926.936l-.63.63c-.427.416-.86.832-1.292,1.238l-.646.6c-.548.509-1.1.991-1.643,1.451-.268.23-.548.449-.805.663l-.263.208c-.372.29-.734.548-1.1.816a10.236,10.236,0,0,1-3.215,1.643,9.634,9.634,0,0,1-2.421.279,5.208,5.208,0,0,1-1.292-.192,4.129,4.129,0,0,1-.882-.383,3.834,3.834,0,0,1-1.216-1.156,6.145,6.145,0,0,1-.75-1.583,10.231,10.231,0,0,1-.307-1.238q-.137-.783-.214-1.692v-.465h0a6.43,6.43,0,0,1,.049-.958,16.436,16.436,0,0,1,.411-2.284c.148-.586.323-1.188.515-1.8.323-1.008.7-2.021,1.1-2.99.153-.389.312-.767.471-1.134.077-.186.159-.367.236-.548.466-1.068.92-2.021,1.282-2.738l.17-.35c.389-.778.641-1.243.641-1.243a24.488,24.488,0,0,0,2.919.92l.5.12.422.088a13.4,13.4,0,0,0,2.826.3,5.615,5.615,0,0,0,1.895-.307,25.985,25.985,0,0,0,3.385-1.32c2.492-1.3,5.373-4.042,8.166-11.72a13.537,13.537,0,0,0,.663-7.963c-.049-.186-.1-.372-.159-.548a9.655,9.655,0,0,0-.646-1.544,10.363,10.363,0,0,0-1.933-2.618c-.257-.257-.548-.5-.805-.734a13.533,13.533,0,0,0-1.813-1.26,15.2,15.2,0,0,0-2.015-.975,35.48,35.48,0,0,0-4.693-1.572l-.5-.115a4.967,4.967,0,0,0-1.879-.175c-.35.066-.734.159-1.156.279a12.4,12.4,0,0,0-2.339.969,16.567,16.567,0,0,0-4.507,3.647,27.012,27.012,0,0,0-1.829,2.3,36.5,36.5,0,0,0-2.481,4.064c-.2.394-.411.8-.619,1.216q-.613,1.26-1.227,2.689c-.411.958-.811,1.972-1.21,3.056-.8,2.163-1.577,4.584-2.328,7.295a49.17,49.17,0,0,0-1.265,6.134c-.049.34-.1.679-.137,1.019q-.131,1.019-.214,2.021c-.088,1-.153,1.994-.186,2.963,0,.646-.038,1.282-.038,1.906v1.84l.033.887c.027.586.066,1.156.11,1.709a8.066,8.066,0,0,0,.071.816c.049.548.11,1.052.181,1.55.033.246.066.487.1.728.148.947.318,1.813.515,2.569.049.186.1.372.148.548.1.351.208.674.318.969s.225.548.34.794a10.814,10.814,0,0,0,.613,1.068,13.393,13.393,0,0,0,2.147,2.492c.126.115.252.23.383.34a14.568,14.568,0,0,0,1.271.964c.148.1.3.2.46.3a14.973,14.973,0,0,0,6.276,2.191,16.021,16.021,0,0,0,2.076.1,18.7,18.7,0,0,0,2.234-.17,10.187,10.187,0,0,0,4.929-2.777,29.814,29.814,0,0,0,2.191-2.141l.548-.548c.356-.389.7-.778,1.041-1.167l.5-.586c.5-.581.969-1.156,1.413-1.7l.433-.548.805-1,.367-.46a10.343,10.343,0,0,1,1.906-2.087l.5-.175.192-.066.767-.268,1.577-.548,3.286-1.172h0ZM442.63,281.857a14.666,14.666,0,0,1,6.331-6.331s3.73,3.724-1.1,11.55a10.215,10.215,0,0,1-8.565,5.214C438.906,289.311,441.513,284.47,442.63,281.857Z" transform="translate(-104.418 -71.926)" fill="#006835"/>
    <path id="Path_9" data-name="Path 9" d="M518.239,283.655c-2.979-1.49,5.214-22.723,8.215-29.8s12.662-35.39,12.662-35.39-7.076-2.607-10.8-1.862c0,0-12.01,27.115-12.667,27.931-1.49,1.862-10.805-2.985-14.716-.931-5.039,2.634-11.178,14.152-13.04,22.35s-8.215,23.84-5.959,29.059,7.35,9.513,11.923,8.938c5.959-.745,10.055-10.406,10.8-12.29,0,0,2.935,7.749,5.778,9.5,4.841,2.979,11.172-7.448,13.407-8.938,2.36-1.577,5.964-7.826,5.964-7.826V265.769S521.219,285.145,518.239,283.655Zm-9.31-17.525c-1.862,4.1-11.545,23.467-15.269,25.707,0,0,2.234-20.494,8.215-30.176s6.7-10.061,9.688-9.31-.783,9.7-2.64,13.8Z" transform="translate(-130.48 -48.761)" fill="#006835"/>
    <path id="Path_10" data-name="Path 10" d="M731.6,265.675l-.46.044a4.068,4.068,0,0,0-1.183-.044c-.685.071-1.276.115-1.78.142a4.734,4.734,0,0,1-1.052-.142l-.06.159a6.158,6.158,0,0,1-1.583-.159s-16.594,42.17-22.525,46.875c-2.191-4,11.205-34.552,12.251-39.432,1.1-5.214,1.49-6.7,1.49-6.7s-7.826-3.73-9.13-3.171l-.066.148a3.133,3.133,0,0,0-1.577-.148s-17.323,38.561-14.343,51.973c1.254,5.646,2.191,9.683,9.31,9.683a3.406,3.406,0,0,0,.466-.038c.372.027.761.038,1.177.038,2.043,0,4.2-2.24,5.723-4.261-1.013,7.076-3.428,23.582-4.014,24.754-.745,1.49,2.963,5.586,6.7,5.586a1.03,1.03,0,0,0,.487-.131,5.933,5.933,0,0,0,1.156.131c2.985,0,4.1-13.785,5.219-19s17.136-57.373,20.116-62.587C737.934,269.4,734.955,265.3,731.6,265.675Z" transform="translate(-225.373 -69.895)" fill="#006835"/>
    <path id="Path_11" data-name="Path 11" d="M633.379,265.675l-.46.044a4.061,4.061,0,0,0-1.183-.044c-.685.071-1.271.115-1.78.142a4.71,4.71,0,0,1-1.046-.142l-.066.159a6.074,6.074,0,0,1-1.577-.159s-16.6,42.17-22.531,46.875c-2.191-4,11.205-34.552,12.251-39.432,1.1-5.214,1.49-6.7,1.49-6.7s-7.821-3.73-9.124-3.171a.294.294,0,0,1-.066.148,3.132,3.132,0,0,0-1.577-.148,284.294,284.294,0,0,0-10.46,27.487v-.1s-3.724,9.31-4.841,10.433-11.55,13.412-16.4,14.53-6.7-1.1-7.076-5.964,4.841-14.53,4.841-14.53,5.592,2.24,8.571,1.123,7.361-1.522,11.55-13.04c2.979-8.215-1.1-13.412-6.709-15.647s-7.076-1.862-7.076-1.862c-3.73.745-11.709,3.834-17.7,25.516-2.985,10.805-1.868,22.728,0,26.452s7.262,8.379,15.461,7.262c5.537-.756,13.034-12.662,14.152-13.034l1-.345a16.873,16.873,0,0,0,.345,3.7c1.254,5.646,2.191,9.683,9.31,9.683a3.281,3.281,0,0,0,.466-.038c.372.027.767.038,1.177.038,2.043,0,4.2-2.24,5.729-4.261-1.019,7.076-3.434,23.582-4.02,24.754-.745,1.49,2.963,5.586,6.709,5.586a1.052,1.052,0,0,0,.487-.131,5.891,5.891,0,0,0,1.156.131c2.979,0,4.1-13.785,5.214-19s17.136-57.373,20.121-62.587C639.715,269.4,636.73,265.3,633.379,265.675Zm-54.016,14.152a14.666,14.666,0,0,1,6.331-6.331s3.724,3.724-1.1,11.55a10.221,10.221,0,0,1-8.571,5.214C575.633,287.28,578.245,282.438,579.362,279.826Z" transform="translate(-166.268 -69.895)" fill="#006835"/>
  </g>
</svg>
